<?xml version="1.0" standalone="no"?>
<!DOCTYPE svg PUBLIC "-//W3C//DTD SVG 20010904//EN"
 "http://www.w3.org/TR/2001/REC-SVG-20010904/DTD/svg10.dtd">
<svg version="1.0" xmlns="http://www.w3.org/2000/svg"
 width="1080.000000pt" height="1080.000000pt" viewBox="0 0 1080.000000 1080.000000"
 preserveAspectRatio="xMidYMid meet">
<metadata>
Created by potrace 1.14, written by Peter Selinger 2001-2017
</metadata>
<g transform="translate(0.000000,1080.000000) scale(0.100000,-0.100000)"
fill="#000000" stroke="none">
<path d="M5245 6697 c-122 -48 -231 -149 -335 -307 -73 -113 -222 -410 -304
-605 -103 -246 -119 -275 -250 -450 -71 -93 -132 -179 -136 -191 -19 -50 -254
-238 -310 -248 -46 -8 -60 3 -67 52 -13 97 46 287 133 432 59 97 64 124 34
163 -17 22 -18 26 -5 37 49 41 -25 149 -130 191 -44 17 -179 14 -260 -6 -122
-31 -313 -136 -460 -253 -177 -142 -247 -217 -305 -332 -33 -64 -34 -187 -3
-245 28 -53 103 -122 160 -147 64 -28 159 -22 233 15 77 38 181 118 278 215
45 45 84 82 85 82 2 0 3 -44 3 -97 -1 -86 2 -104 25 -148 16 -32 43 -62 74
-85 46 -33 54 -35 125 -34 131 0 221 54 412 242 l127 126 -1 -70 c-1 -84 24
-141 75 -173 83 -51 147 -1 147 117 0 67 41 146 138 263 129 156 305 292 419
325 74 21 83 16 83 -49 0 -97 -56 -218 -152 -329 -94 -108 -310 -271 -412
-310 -145 -56 -198 -70 -284 -78 -51 -4 -99 -14 -107 -20 -27 -23 -18 -50 23
-66 20 -8 45 -19 54 -24 31 -17 211 -12 300 9 216 51 469 212 649 415 121 135
179 250 179 354 0 61 -23 104 -87 162 -80 73 -104 83 -203 84 -80 1 -90 -1
-170 -40 -99 -48 -186 -111 -284 -207 -38 -37 -71 -65 -73 -63 -12 11 33 69
75 97 202 138 623 525 730 671 97 132 142 236 142 327 0 48 -5 65 -29 98 -56
78 -133 113 -240 112 -36 0 -79 -6 -96 -12z m199 -162 c10 -27 -21 -134 -55
-188 -80 -126 -296 -373 -386 -440 -26 -20 -81 -64 -122 -97 -40 -34 -76 -59
-78 -56 -8 7 103 215 176 330 128 204 270 368 375 435 55 34 81 39 90 16z
m-1544 -933 l23 -18 -36 4 c-36 4 -41 0 -229 -193 -179 -183 -381 -372 -470
-438 -21 -15 -60 -35 -88 -44 -61 -19 -70 -13 -70 52 0 51 33 119 105 220 137
192 325 336 535 411 84 30 197 33 230 6z"/>
<path d="M6450 6703 c-243 -85 -429 -363 -728 -1089 -30 -73 -104 -192 -150
-241 -34 -36 -132 -160 -155 -195 -24 -37 -22 -74 5 -92 33 -24 53 -20 94 19
20 19 39 35 42 35 3 0 2 -31 -1 -68 -5 -54 -3 -79 13 -121 22 -62 34 -77 71
-97 40 -20 72 -17 96 9 33 36 43 63 43 116 0 181 403 582 597 594 l38 2 3 -45
c13 -179 -193 -441 -477 -607 -70 -41 -89 -49 -224 -94 -52 -17 -108 -29 -140
-29 -67 0 -123 -16 -131 -37 -8 -19 20 -53 43 -53 9 0 29 -7 45 -15 43 -22
211 -20 311 5 173 43 308 117 520 287 59 47 207 219 240 278 37 65 65 158 65
215 0 66 -84 166 -178 214 -45 23 -149 32 -198 16 -117 -38 -238 -117 -371
-244 -40 -38 -73 -63 -73 -57 0 26 35 62 122 126 277 205 614 527 723 691 59
89 105 208 105 275 0 46 -5 63 -29 96 -56 78 -133 113 -240 112 -36 0 -73 -3
-81 -6z m178 -211 c-7 -70 -36 -131 -115 -237 -61 -82 -279 -325 -292 -325 -4
0 -50 -36 -102 -81 -91 -78 -129 -106 -129 -94 0 14 104 210 162 305 96 157
171 255 274 357 91 90 150 132 188 133 17 0 18 -6 14 -58z"/>
<path d="M1600 6648 c-467 -65 -721 -144 -940 -291 -139 -94 -238 -204 -277
-310 -41 -112 -46 -294 -10 -362 46 -85 164 -170 282 -201 105 -28 159 -10
148 49 -7 33 -32 52 -99 72 -72 21 -138 66 -158 108 -21 46 -10 131 28 206 72
142 312 324 556 424 375 152 751 215 1059 177 242 -31 417 -126 515 -279 75
-115 100 -224 85 -363 -49 -434 -491 -889 -989 -1019 -123 -32 -349 -29 -451
5 -66 22 -158 78 -158 96 -1 23 181 372 312 600 134 233 218 355 311 451 90
95 133 121 209 128 61 6 62 6 65 39 8 80 -96 157 -213 156 -86 -1 -147 -36
-268 -152 -173 -169 -257 -291 -257 -377 0 -40 -16 -81 -94 -244 -51 -108
-121 -259 -156 -336 -34 -77 -68 -146 -75 -153 -9 -10 -26 2 -84 63 l-73 77 6
51 c3 29 8 75 12 103 8 69 -11 89 -76 81 -64 -8 -97 -25 -121 -64 -18 -28 -20
-42 -13 -76 4 -23 6 -80 4 -127 -2 -47 -4 -157 -5 -245 0 -159 0 -161 31 -225
34 -71 65 -106 118 -135 30 -16 39 -17 76 -6 51 15 114 78 161 161 59 104 45
99 141 52 91 -46 163 -65 333 -88 306 -43 688 64 965 269 119 88 260 240 337
362 181 287 219 664 91 908 -49 94 -192 232 -293 284 -130 66 -235 96 -443
128 -114 17 -480 19 -592 3z m-651 -1731 c1 -4 -14 -43 -34 -85 -35 -72 -38
-75 -47 -52 -6 14 -12 72 -15 130 l-6 105 49 -45 c27 -24 51 -48 53 -53z"/>
<path d="M7654 5783 c-7 -5 -53 -79 -104 -167 -226 -391 -509 -706 -635 -706
-50 0 -65 16 -65 69 0 132 111 337 278 512 84 89 96 114 65 144 -25 26 -59 35
-129 35 -107 0 -129 -19 -267 -231 -101 -153 -127 -230 -127 -372 0 -142 20
-186 117 -253 51 -35 64 -39 131 -43 41 -2 92 2 112 8 61 18 153 93 234 191
l76 91 0 -75 c0 -104 32 -171 103 -220 45 -31 60 -36 109 -36 108 0 214 48
348 158 l40 34 -25 -70 c-14 -38 -25 -77 -25 -85 0 -43 94 -47 180 -8 57 25
112 83 236 246 153 203 236 305 302 372 57 58 139 119 148 111 2 -3 -17 -45
-41 -94 -25 -49 -63 -145 -85 -213 -34 -106 -40 -136 -40 -213 0 -109 19 -152
87 -199 44 -30 53 -33 128 -33 59 0 95 6 138 23 54 21 178 106 240 165 15 14
30 26 32 26 2 0 14 -18 26 -39 24 -44 114 -111 173 -131 53 -17 151 -8 206 20
102 51 250 180 378 328 34 40 62 68 62 62 0 -6 -29 -76 -65 -155 -36 -80 -65
-149 -65 -153 0 -3 -19 -46 -41 -94 l-42 -87 -101 -67 c-135 -89 -312 -221
-416 -309 -330 -280 -430 -535 -255 -655 150 -103 319 -70 488 96 142 139 218
262 436 704 52 105 101 191 114 200 108 72 448 378 541 485 85 98 117 154 114
194 -3 32 -6 36 -35 39 -28 3 -40 -6 -110 -80 -154 -163 -421 -404 -391 -352
3 5 17 34 31 64 14 30 66 139 115 242 79 165 88 191 83 224 -5 31 -14 43 -42
59 -35 19 -36 21 -22 42 20 30 11 63 -29 108 -67 77 -170 104 -307 81 -101
-18 -156 -37 -256 -92 -215 -116 -444 -310 -520 -439 -17 -27 -73 -93 -125
-145 -164 -164 -279 -235 -319 -196 -21 22 -19 146 4 218 10 29 57 136 106
238 103 217 118 264 99 321 -30 90 -101 102 -228 39 -89 -45 -178 -119 -381
-318 -74 -73 -135 -131 -137 -129 -1 1 29 79 67 172 38 94 69 184 69 202 0 56
-47 83 -142 83 -64 0 -81 -28 -158 -257 -37 -112 -75 -213 -83 -225 -27 -38
-148 -163 -215 -222 -126 -109 -209 -150 -248 -121 -15 10 -18 25 -17 72 3
142 65 297 223 561 60 101 71 126 65 150 -3 17 -14 37 -24 46 -33 30 -164 64
-187 49z m2643 -186 c16 -16 15 -17 -24 -17 -39 0 -44 -4 -129 -102 -115 -133
-244 -262 -369 -369 -167 -144 -269 -205 -327 -197 -20 3 -23 10 -26 51 -2 37
4 61 28 110 117 229 346 430 594 518 68 25 94 29 158 27 58 -2 82 -8 95 -21z
m-664 -1309 c-137 -271 -299 -472 -410 -508 -43 -15 -63 0 -63 46 0 108 110
251 345 445 153 127 180 149 188 149 4 0 -23 -60 -60 -132z"/>
</g>
</svg>
